<svg xmlns="http://www.w3.org/2000/svg" viewBox="0 0 220 140">
  <rect width="220" height="140" fill="#16201f"/>
  <path d="M0 118h220v22H0z" fill="#d8a327"/>
  <g opacity=".11" stroke="#fffef9"><path d="M0 24h220M0 48h220M0 72h220M0 96h220"/><path d="M24 0v118M48 0v118M72 0v118M96 0v118M120 0v118M144 0v118M168 0v118M192 0v118"/></g>
  <rect x="13" y="13" width="92" height="94" rx="14" fill="#fffef9"/>
  <g transform="translate(22 22) scale(.58)">
    <rect width="128" height="128" rx="24" fill="#16201f"/>
    <path d="M35 8h15l14 20L78 8h15L70 42H58Z" fill="#d8a327"/>
    <rect x="54" y="27" width="20" height="16" rx="5" fill="#fffef9"/>
    <path d="M31 38h66a12 12 0 0 1 12 12v51a12 12 0 0 1-12 12H31a12 12 0 0 1-12-12V50a12 12 0 0 1 12-12Z" fill="#087f78"/>
    <path d="M29 53h70v45a7 7 0 0 1-7 7H36a7 7 0 0 1-7-7V53Z" fill="#fffef9"/>
    <path d="M42 68h44" stroke="#16201f" stroke-width="8" stroke-linecap="round"/>
    <path d="M48 84h32" stroke="#d8a327" stroke-width="6" stroke-linecap="round"/>
  </g>
  <text x="105" y="37" fill="#8dc9bd" font-family="Arial, sans-serif" font-size="6.5" font-weight="700" letter-spacing=".8">SHEETS → LABELOO</text>
  <text x="105" y="61" fill="#fffef9" font-family="Georgia, serif" font-size="17" font-weight="700">Rows in.</text>
  <text x="105" y="82" fill="#fffef9" font-family="Georgia, serif" font-size="17" font-weight="700">Labels out.</text>
  <text x="105" y="101" fill="#c8d4d1" font-family="Arial, sans-serif" font-size="7.5">Map. Preview. Print.</text>
</svg>
